<?xml version="1.0" encoding="UTF-8"?>
<svg version="1.1" xmlns="http://www.w3.org/2000/svg" width="512" height="512">
<path d="M0 0 C12.67509386 9.86461049 22.25717381 22.85371895 25 39 C26.57630082 56.90867518 24.12431793 73.02433272 13 87.625 C3.83380014 98.36254841 -5.78644852 103.33704937 -19 109 C-19.33 120.88 -19.66 132.76 -20 145 C-17.03 145.66 -14.06 146.32 -11 147 C-9.16523765 147.5409671 -7.33858698 148.11142329 -5.52734375 148.7265625 C-4.60888672 149.0359375 -3.69042969 149.3453125 -2.74414062 149.6640625 C-1.81794922 149.98117188 -0.89175781 150.29828125 0.0625 150.625 C1.02349609 150.94984375 1.98449219 151.2746875 2.97460938 151.609375 C5.31781401 152.40210095 7.65911054 153.20046333 10 154 C10 149.71 10 145.42 10 141 C44.62032435 135.21934864 83.0504274 131.13480572 113.4296875 151.9453125 C135.87752349 168.14436873 157.38789444 190.44396998 162.28155994 218.54867649 C167.09189087 252.45609761 163.56264623 287.17553957 160 321 C140.2 321 120.4 321 100 321 C100 380.73 100 440.46 100 502 C3.82765752 502.1613254 3.82765752 502.1613254 -36.31835938 502.1953125 C-45.50740589 502.20314393 -54.69645213 502.21122584 -63.88549805 502.21972656 C-65.03718678 502.22078156 -66.18887551 502.22183655 -67.3754639 502.22292352 C-85.96580267 502.24031821 -104.55609191 502.2718521 -123.14640132 502.30861118 C-142.22671073 502.34602435 -161.30699423 502.36823666 -180.38733882 502.37635398 C-192.1598414 502.38184095 -203.93220408 502.39916787 -215.7046636 502.43166587 C-223.77874275 502.45281836 -231.85274962 502.45919836 -239.92685447 502.45400551 C-244.584401 502.4514449 -249.24170314 502.45535549 -253.89920616 502.4768219 C-258.16760335 502.49635084 -262.4355928 502.49722906 -266.70400914 502.48359558 C-268.2439068 502.48191169 -269.78383037 502.4869321 -271.3236774 502.49953273 C-285.61909668 502.60966128 -296.12267973 499.55783196 -307 490 C-311.72218208 484.97994372 -315.39461222 479.38381745 -318 473 C-318.53367187 471.69289063 -318.53367187 471.69289063 -319.078125 470.359375 C-322.32986127 458.50982759 -321.03677128 444.69143966 -315 434 C-313.92685547 432.66195312 -313.92685547 432.66195312 -312.83203125 431.296875 C-310.77281156 429.18807207 -310.77281156 429.18807207 -310.9375 426.6875 C-312.1472045 423.62765921 -313.75012593 421.13172415 -315.6484375 418.453125 C-319.43185732 411.58610868 -320.53337174 404.88986206 -320.4375 397.125 C-320.42847656 396.24658447 -320.41945313 395.36816895 -320.41015625 394.46313477 C-320.09222065 382.5306141 -315.87368422 373.96067072 -308 365 C-302.97994372 360.27781792 -297.38381745 356.60538778 -291 354 C-290.20012665 353.65768341 -289.4002533 353.31536682 -288.57614136 352.962677 C-283.60429261 351.62428347 -278.88863272 351.73796809 -273.76220703 351.77294922 C-272.63967026 351.77265717 -271.51713348 351.77236511 -270.36058044 351.77206421 C-266.65957848 351.77345473 -262.95877919 351.78900313 -259.2578125 351.8046875 C-256.68806061 351.80841861 -254.11830729 351.81126512 -251.54855347 351.81326294 C-245.48195986 351.8201124 -239.41544958 351.83586663 -233.34888732 351.85596192 C-226.43957911 351.87834988 -219.53026735 351.88932162 -212.62093186 351.89935279 C-198.41390933 351.92023376 -184.20697208 351.95689833 -170 352 C-170 341.77 -170 331.54 -170 321 C-189.8 321 -209.6 321 -230 321 C-241.20575229 214.6103949 -241.20575229 214.6103949 -214.22903442 180.71035767 C-195.48069899 158.37362292 -172.68586324 140.21857712 -142.97489738 137.22572899 C-121.89075133 135.53047027 -100.80881195 137.52549508 -80 141 C-80 145.29 -80 149.58 -80 154 C-78.08574219 153.3503125 -76.17148437 152.700625 -74.19921875 152.03125 C-72.34263887 151.40543656 -70.48604808 150.77965496 -68.62915039 150.15478516 C-67.33953841 149.71988772 -66.05046971 149.28337578 -64.76196289 148.84521484 C-62.9091547 148.21547426 -61.05421111 147.59202743 -59.19921875 146.96875 C-58.08377686 146.59169922 -56.96833496 146.21464844 -55.8190918 145.82617188 C-53 145 -53 145 -50 145 C-50 123.55 -50 102.1 -50 80 C-42.74 79.34 -35.48 78.68 -28 78 C-19.55741699 74.83403137 -14.41970439 71.86242149 -10 64 C-9.38125 62.96875 -8.7625 61.9375 -8.125 60.875 C-5.60352941 54.16636006 -5.93180856 46.36891148 -8.06640625 39.63671875 C-11.11920903 32.95715299 -14.59842099 28.59852075 -21 25 C-22.03125 24.38125 -23.0625 23.7625 -24.125 23.125 C-30.83363994 20.60352941 -38.63108852 20.93180856 -45.36328125 23.06640625 C-53.69889461 26.87608259 -57.73925439 31.55646552 -61.8125 39.5625 C-63.29908681 43.51387032 -63.29908681 43.51387032 -64 50 C-74.23 50 -84.46 50 -95 50 C-95 32.96641436 -90.13910061 19.68912078 -78.33984375 7.28125 C-57.12005776 -13.40715571 -24.74166717 -16.54346244 0 0 Z M-176.375 192.75 C-176.95661896 193.30593842 -177.53823792 193.86187683 -178.13748169 194.43466187 C-194.64345988 210.46799621 -203.11443993 225.38935093 -203.56762123 248.64085007 C-203.59891967 262.88969789 -201.97535559 276.90237674 -200 291 C-180.2 291 -160.4 291 -140 291 C-140 311.13 -140 331.26 -140 352 C-122.39505727 352.17020246 -122.39505727 352.17020246 -104.78979492 352.29785156 C-102.56166556 352.32725121 -100.33355443 352.35808228 -98.10546875 352.390625 C-96.97419556 352.39175293 -95.84292236 352.39288086 -94.67736816 352.39404297 C-82.0716638 352.61804725 -72.4722593 356.70799027 -63 365 C-53.02925153 375.67407927 -50.32874424 387.72989241 -50.61328125 401.9140625 C-51.01187819 409.6528868 -53.27007677 416.59620383 -58.16796875 422.703125 C-60.22718844 424.81192793 -60.22718844 424.81192793 -60.0625 427.3125 C-58.8527955 430.37234079 -57.24987407 432.86827585 -55.3515625 435.546875 C-51.56419184 442.4210622 -50.55080604 448.92516035 -50.75 456.6875 C-50.75515625 457.50283203 -50.7603125 458.31816406 -50.765625 459.15820312 C-50.82351587 463.63389124 -51.25249644 467.51497863 -52 472 C-11.74 472 28.52 472 70 472 C70 412.27 70 352.54 70 291 C89.8 291 109.6 291 130 291 C136.42105448 249.22711149 136.42105448 249.22711149 122.75506592 210.72692871 C117.79286315 204.24548617 112.27038288 198.38508079 106.375 192.75 C105.79338104 192.19406158 105.21176208 191.63812317 104.61251831 191.06533813 C91.37137812 178.58689273 77.38767659 167.02361628 58.22247314 167.5645752 C51.94188353 168.03559228 46.02537526 169.13295119 40 171 C39.98598145 172.10903687 39.98598145 172.10903687 39.97167969 173.24047852 C39.57951891 197.95237463 36.90082679 220.32163212 18.63671875 238.45703125 C17.76660156 239.29621094 16.89648438 240.13539063 16 241 C15.36707031 241.66386719 14.73414063 242.32773438 14.08203125 243.01171875 C1.31993711 255.54843374 -17.69007646 260.32861462 -35 260.5 C-54.97177147 260.30225969 -73.25076329 253.94381015 -87.45703125 239.63671875 C-88.29621094 238.76660156 -89.13539063 237.89648438 -90 237 C-90.66386719 236.36707031 -91.32773438 235.73414063 -92.01171875 235.08203125 C-108.81948748 217.97210038 -109.71638737 193.43718226 -110 171 C-137.65349341 162.43116908 -156.77992934 174.02012128 -176.375 192.75 Z M-47.5546875 176.0625 C-48.45623566 176.37324463 -49.35778381 176.68398926 -50.28665161 177.00415039 C-53.15250263 177.99415979 -56.01371902 178.99686855 -58.875 180 C-60.82262422 180.67532316 -62.77053803 181.34981179 -64.71875 182.0234375 C-69.48257542 183.67264311 -74.24228646 185.33324876 -79 187 C-79.01748291 188.25176025 -79.03496582 189.50352051 -79.05297852 190.79321289 C-79.06281265 191.49732803 -79.07264679 192.20144318 -79.08277893 192.92689514 C-78.72118008 201.98273003 -73.00431918 210.59371803 -67 217 C-66.10667969 217.95519531 -66.10667969 217.95519531 -65.1953125 218.9296875 C-56.41653115 227.41705702 -45.05778403 230.33629075 -33.18579102 230.38500977 C-20.65000635 230.15441216 -11.15926073 224.92990226 -2.29296875 216.34765625 C3.88426592 209.70126452 9.14629936 200.00734296 9.04296875 190.8203125 C9.02878906 189.55960938 9.01460938 188.29890625 9 187 C3.27488852 184.99434401 -2.45427824 183.00090858 -8.1875 181.01855469 C-10.1362469 180.34284225 -12.08385522 179.66383664 -14.03027344 178.98144531 C-16.83233675 177.99972139 -19.63831545 177.03001266 -22.4453125 176.0625 C-23.74409836 175.60315063 -23.74409836 175.60315063 -25.06912231 175.13452148 C-33.64700579 172.20387011 -39.13781724 173.08565514 -47.5546875 176.0625 Z M-284.8125 386.4375 C-288.75078863 391.05092383 -289.4454588 393.59018413 -289.31640625 399.4921875 C-288.84957983 403.19221913 -287.4743642 405.25813697 -285 408 C-279.5457606 412.05571648 -274.24222302 412.12525512 -267.61233521 412.13371277 C-266.87796262 412.13597833 -266.14359003 412.13824388 -265.38696373 412.14057809 C-262.93129957 412.14689772 -260.4756909 412.14609004 -258.02001953 412.14526367 C-256.25726246 412.14825642 -254.49450604 412.15165922 -252.73175049 412.15544128 C-247.9466017 412.16427341 -243.16147079 412.16661906 -238.37631464 412.16725707 C-235.38601527 412.16796799 -232.39572045 412.17010309 -229.40542221 412.17275429 C-218.97128765 412.18200489 -208.53716587 412.1860895 -198.10302734 412.18530273 C-188.37994583 412.18470192 -178.65691979 412.19525524 -168.93385231 412.2110464 C-160.58296546 412.22412527 -152.23209673 412.22948649 -143.88119972 412.22884732 C-138.89496337 412.22859245 -133.90877634 412.23143781 -128.9225502 412.24202538 C-124.23251804 412.25171224 -119.54258227 412.25178147 -114.85254669 412.24450874 C-113.1332701 412.24346366 -111.41398749 412.24582128 -109.69472122 412.2518692 C-107.34357859 412.25960288 -104.99276773 412.25493535 -102.64163208 412.24723816 C-101.32719683 412.24778293 -100.01276157 412.24832769 -98.65849495 412.24888897 C-93.28972736 411.88364942 -89.29349624 411.12103007 -85.1875 407.5625 C-81.24921137 402.94907617 -80.5545412 400.40981587 -80.68359375 394.5078125 C-81.15042017 390.80778087 -82.5256358 388.74186303 -85 386 C-90.4542394 381.94428352 -95.75777698 381.87474488 -102.38766479 381.86628723 C-103.12203738 381.86402167 -103.85640997 381.86175612 -104.61303627 381.85942191 C-107.06870043 381.85310228 -109.5243091 381.85390996 -111.97998047 381.85473633 C-113.74273754 381.85174358 -115.50549396 381.84834078 -117.26824951 381.84455872 C-122.0533983 381.83572659 -126.83852921 381.83338094 -131.62368536 381.83274293 C-134.61398473 381.83203201 -137.60427955 381.82989691 -140.59457779 381.82724571 C-151.02871235 381.81799511 -161.46283413 381.8139105 -171.89697266 381.81469727 C-181.62005417 381.81529808 -191.34308021 381.80474476 -201.06614769 381.7889536 C-209.41703454 381.77587473 -217.76790327 381.77051351 -226.11880028 381.77115268 C-231.10503663 381.77140755 -236.09122366 381.76856219 -241.0774498 381.75797462 C-245.76748196 381.74828776 -250.45741773 381.74821853 -255.14745331 381.75549126 C-256.8667299 381.75653634 -258.58601251 381.75417872 -260.30527878 381.7481308 C-262.65642141 381.74039712 -265.00723227 381.74506465 -267.35836792 381.75276184 C-268.67280317 381.75221707 -269.98723843 381.75167231 -271.34150505 381.75111103 C-276.71027264 382.11635058 -280.70650376 382.87896993 -284.8125 386.4375 Z M-284.8125 446.4375 C-288.75078863 451.05092383 -289.4454588 453.59018413 -289.31640625 459.4921875 C-288.84957983 463.19221913 -287.4743642 465.25813697 -285 468 C-279.5457606 472.05571648 -274.24222302 472.12525512 -267.61233521 472.13371277 C-266.87796262 472.13597833 -266.14359003 472.13824388 -265.38696373 472.14057809 C-262.93129957 472.14689772 -260.4756909 472.14609004 -258.02001953 472.14526367 C-256.25726246 472.14825642 -254.49450604 472.15165922 -252.73175049 472.15544128 C-247.9466017 472.16427341 -243.16147079 472.16661906 -238.37631464 472.16725707 C-235.38601527 472.16796799 -232.39572045 472.17010309 -229.40542221 472.17275429 C-218.97128765 472.18200489 -208.53716587 472.1860895 -198.10302734 472.18530273 C-188.37994583 472.18470192 -178.65691979 472.19525524 -168.93385231 472.2110464 C-160.58296546 472.22412527 -152.23209673 472.22948649 -143.88119972 472.22884732 C-138.89496337 472.22859245 -133.90877634 472.23143781 -128.9225502 472.24202538 C-124.23251804 472.25171224 -119.54258227 472.25178147 -114.85254669 472.24450874 C-113.1332701 472.24346366 -111.41398749 472.24582128 -109.69472122 472.2518692 C-107.34357859 472.25960288 -104.99276773 472.25493535 -102.64163208 472.24723816 C-101.32719683 472.24778293 -100.01276157 472.24832769 -98.65849495 472.24888897 C-93.28972736 471.88364942 -89.29349624 471.12103007 -85.1875 467.5625 C-81.24921137 462.94907617 -80.5545412 460.40981587 -80.68359375 454.5078125 C-81.15042017 450.80778087 -82.5256358 448.74186303 -85 446 C-90.4542394 441.94428352 -95.75777698 441.87474488 -102.38766479 441.86628723 C-103.12203738 441.86402167 -103.85640997 441.86175612 -104.61303627 441.85942191 C-107.06870043 441.85310228 -109.5243091 441.85390996 -111.97998047 441.85473633 C-113.74273754 441.85174358 -115.50549396 441.84834078 -117.26824951 441.84455872 C-122.0533983 441.83572659 -126.83852921 441.83338094 -131.62368536 441.83274293 C-134.61398473 441.83203201 -137.60427955 441.82989691 -140.59457779 441.82724571 C-151.02871235 441.81799511 -161.46283413 441.8139105 -171.89697266 441.81469727 C-181.62005417 441.81529808 -191.34308021 441.80474476 -201.06614769 441.7889536 C-209.41703454 441.77587473 -217.76790327 441.77051351 -226.11880028 441.77115268 C-231.10503663 441.77140755 -236.09122366 441.76856219 -241.0774498 441.75797462 C-245.76748196 441.74828776 -250.45741773 441.74821853 -255.14745331 441.75549126 C-256.8667299 441.75653634 -258.58601251 441.75417872 -260.30527878 441.7481308 C-262.65642141 441.74039712 -265.00723227 441.74506465 -267.35836792 441.75276184 C-268.67280317 441.75221707 -269.98723843 441.75167231 -271.34150505 441.75111103 C-276.71027264 442.11635058 -280.70650376 442.87896993 -284.8125 446.4375 Z " fill="#000000" transform="translate(336,10)"/>
</svg>
